<svg xmlns="http://www.w3.org/2000/svg" width="1032" height="1016" viewBox="0 0 1032 1016">
<g>
<path d="M 556.00 734.69 C545.94,736.80 541.24,737.16 518.50,737.49 C504.20,737.69 491.38,737.66 490.00,737.40 C488.62,737.15 482.55,736.25 476.50,735.41 C470.45,734.57 462.58,733.18 459.00,732.33 C448.61,729.85 426.68,722.89 424.53,721.38 C423.44,720.62 421.87,719.99 421.03,719.97 C418.80,719.93 398.75,709.61 388.00,702.99 C382.95,699.88 373.09,692.90 370.36,690.50 C361.68,682.89 353.45,676.40 351.95,676.00 C350.30,675.56 350.71,674.52 355.48,667.02 C358.45,662.36 360.69,658.35 360.46,658.12 C360.23,657.89 355.84,660.25 350.70,663.35 C345.57,666.46 341.04,669.00 340.65,669.00 C340.25,669.00 340.41,668.09 341.01,666.99 C341.93,665.26 341.39,664.22 337.24,659.74 C319.23,640.29 303.19,613.72 294.09,588.28 C289.64,575.83 283.59,550.09 282.05,537.00 C281.50,532.33 280.83,519.28 280.56,508.00 C280.13,489.58 280.32,486.08 282.47,473.50 C287.14,446.19 289.64,435.92 294.51,424.00 C295.75,420.98 297.56,416.25 298.53,413.50 C304.01,397.94 320.05,370.88 332.16,356.75 C340.53,346.99 341.36,345.55 340.04,343.07 C339.43,341.93 339.13,341.00 339.38,341.00 C341.23,341.00 349.58,345.55 354.75,349.37 C358.19,351.92 361.40,354.00 361.87,354.00 C362.35,354.00 359.87,349.65 356.37,344.34 C350.30,335.13 348.82,332.15 350.98,333.49 C352.41,334.37 355.27,332.59 361.91,326.65 C374.34,315.57 403.42,298.16 422.50,290.38 C425.80,289.04 429.66,287.30 431.08,286.51 C432.50,285.73 435.43,284.66 437.58,284.14 C439.74,283.62 446.23,281.98 452.00,280.51 C463.46,277.58 466.44,276.99 484.89,274.01 C505.31,270.70 542.92,271.92 559.50,276.42 C562.25,277.16 567.34,278.30 570.82,278.95 C579.04,280.48 589.61,283.96 601.19,288.95 C611.88,293.56 627.78,301.53 630.00,303.41 C630.82,304.11 634.51,306.33 638.20,308.36 C641.88,310.38 645.49,312.64 646.22,313.36 C646.95,314.09 648.66,315.28 650.02,316.00 C652.66,317.41 661.41,324.40 663.97,327.14 C664.81,328.05 667.55,329.95 670.06,331.38 C673.55,333.36 674.90,333.70 675.80,332.80 C678.92,329.68 677.33,333.48 671.95,341.99 C664.13,354.39 664.14,354.57 672.50,348.99 C674.70,347.52 678.60,345.10 681.17,343.61 C685.46,341.12 685.80,341.06 685.32,342.89 C684.77,345.00 687.96,349.84 696.57,359.91 C699.95,363.85 708.02,375.67 712.69,383.50 C720.24,396.17 732.75,424.61 734.45,433.00 C734.84,434.92 736.46,440.55 738.06,445.50 C739.65,450.45 741.63,458.55 742.46,463.50 C744.32,474.57 746.09,503.02 745.50,512.50 C744.06,535.98 741.50,556.35 738.98,564.38 C737.93,567.75 736.17,573.42 735.08,577.00 C725.46,608.57 714.08,628.89 688.96,659.37 C686.21,662.71 685.13,664.84 685.54,666.12 C685.87,667.16 685.72,668.00 685.22,668.00 C684.71,668.00 680.14,665.49 675.06,662.43 C669.97,659.36 665.61,657.06 665.36,657.30 C665.12,657.55 667.41,661.47 670.46,666.03 C675.71,673.88 677.14,676.82 675.08,675.55 C674.57,675.23 669.95,678.52 664.83,682.84 C659.70,687.17 653.86,691.79 651.86,693.11 C649.86,694.42 646.71,696.70 644.86,698.16 C638.55,703.14 614.52,715.82 601.00,721.31 C586.43,727.21 574.10,730.88 556.00,734.69 ZM 489.00 667.36 C525.23,672.85 566.16,664.62 598.27,645.39 C608.53,639.25 624.52,626.26 633.88,616.46 C662.02,587.03 677.27,548.12 677.18,506.00 C677.08,456.81 657.86,413.89 621.56,381.78 C600.24,362.93 573.07,349.27 545.00,343.31 C532.64,340.68 494.13,340.70 482.11,343.34 C466.50,346.78 449.95,352.47 437.69,358.64 C418.25,368.41 395.18,388.26 380.93,407.46 C367.43,425.66 357.11,448.95 351.82,473.12 C349.85,482.12 349.55,486.37 349.55,505.00 C349.55,521.32 349.97,528.72 351.30,535.74 C357.74,569.66 372.64,597.67 396.67,621.06 C410.57,634.58 421.41,642.40 438.50,651.20 C453.31,658.84 471.82,664.76 489.00,667.36 ZM 537.50 623.49 C526.71,625.71 507.61,626.23 496.50,624.62 C485.89,623.09 478.76,621.13 466.50,616.41 C440.69,606.48 417.38,585.08 404.78,559.75 C395.77,541.65 392.54,527.41 392.60,506.00 C392.63,490.10 393.55,483.77 398.12,468.00 C401.59,456.02 406.03,447.19 414.70,435.00 C423.41,422.75 428.75,417.16 439.23,409.32 C455.22,397.35 465.52,392.50 485.97,387.29 C499.31,383.90 499.74,383.86 516.50,384.28 C532.45,384.68 534.25,384.93 545.69,388.31 C572.01,396.10 593.00,410.33 608.46,430.87 C626.52,454.84 635.06,482.48 633.68,512.43 C631.96,549.79 613.63,582.35 581.66,604.84 C569.35,613.50 553.43,620.22 537.50,623.49 ZM 332.50 336.39 C334.82,338.18 333.60,338.36 330.00,336.75 C321.33,332.87 305.68,325.03 306.59,325.02 C310.10,324.97 327.77,332.72 332.50,336.39 ZM 702.06 335.58 C700.10,335.91 697.66,336.41 696.62,336.69 C695.53,337.00 695.01,336.80 695.36,336.22 C695.94,335.30 710.52,328.00 711.80,328.00 C712.13,328.00 710.87,329.57 709.01,331.49 C706.89,333.68 704.30,335.20 702.06,335.58 ZM 687.82 313.29 C685.98,317.33 683.68,321.73 682.70,323.07 L 680.91 325.50 L 681.52 322.50 C681.86,320.85 682.84,318.15 683.70,316.50 C684.56,314.85 686.39,311.25 687.78,308.50 C691.59,300.92 691.62,304.90 687.82,313.29 ZM 343.35 319.25 C343.73,320.76 343.91,322.00 343.76,322.00 C342.80,322.00 334.98,305.14 335.01,303.11 C335.03,300.60 342.11,314.29 343.35,319.25 ZM 687.41 696.32 C689.45,700.62 690.96,704.62 690.76,705.21 C690.19,706.92 682.82,692.14 683.28,690.22 C683.54,689.14 685.08,691.41 687.41,696.32 ZM 293.81 320.48 C294.80,321.47 288.47,320.80 280.00,319.03 C274.81,317.94 272.73,317.20 274.66,317.12 C278.03,316.99 292.94,319.61 293.81,320.48 ZM 705.92 677.49 C706.75,678.32 706.99,678.98 706.46,678.95 C705.27,678.89 694.00,673.12 694.00,672.57 C694.00,671.73 704.48,676.05 705.92,677.49 Z" fill="rgb(127,180,35)"/>
<path d="M 343.35 319.25 C342.11,314.31 335.10,300.72 335.01,303.08 C332.39,295.52 329.69,286.36 327.22,276.50 C324.96,267.44 324.71,264.43 324.61,244.50 C324.53,226.64 324.85,220.94 326.32,214.23 C332.43,186.43 344.72,164.07 364.93,143.98 C377.32,131.67 393.38,119.81 433.00,93.71 C471.58,68.29 491.19,52.15 505.27,34.25 C509.31,29.10 510.70,28.00 513.13,28.00 C516.41,28.00 518.41,29.69 524.99,38.00 C536.99,53.13 553.10,66.77 579.00,83.70 C583.67,86.75 590.55,91.33 594.29,93.88 C598.02,96.42 602.54,99.40 604.33,100.50 C606.11,101.60 612.67,106.10 618.90,110.50 C625.12,114.90 631.85,119.59 633.86,120.92 C645.35,128.55 668.69,149.72 673.63,157.00 C674.93,158.93 678.22,163.65 680.94,167.50 C689.21,179.23 694.41,190.87 699.25,208.50 C702.15,219.06 702.27,220.36 702.38,241.00 C702.53,268.49 701.45,274.87 691.89,302.74 C691.27,304.55 690.59,306.37 689.85,308.23 C691.40,303.67 690.70,302.69 687.78,308.50 C686.39,311.25 684.56,314.85 683.70,316.50 C682.84,318.15 681.86,320.85 681.52,322.50 L 680.91 325.50 L 682.70 323.07 C683.08,322.54 683.67,321.55 684.36,320.29 C681.55,325.82 678.11,331.91 673.82,338.97 C677.66,332.62 678.52,330.08 675.80,332.80 C674.90,333.70 673.55,333.36 670.06,331.38 C667.55,329.95 664.81,328.05 663.97,327.14 C661.41,324.40 652.66,317.41 650.02,316.00 C648.66,315.28 646.95,314.09 646.22,313.36 C645.49,312.64 641.88,310.38 638.20,308.36 C634.51,306.33 630.82,304.11 630.00,303.41 C627.78,301.53 611.88,293.56 601.19,288.95 C589.61,283.96 579.04,280.48 570.82,278.95 C567.34,278.30 562.25,277.16 559.50,276.42 C542.92,271.92 505.31,270.70 484.89,274.01 C466.44,276.99 463.46,277.58 452.00,280.51 C446.23,281.98 439.74,283.62 437.58,284.14 C435.43,284.66 432.50,285.73 431.08,286.51 C429.66,287.30 425.80,289.04 422.50,290.38 C403.42,298.16 374.34,315.57 361.91,326.65 C355.27,332.59 352.41,334.37 350.98,333.49 C349.92,332.83 349.74,333.21 350.53,334.84 C349.28,332.69 348.22,330.78 347.57,329.45 C345.95,326.18 343.80,322.28 342.77,320.79 C341.32,318.66 339.64,315.20 337.85,310.74 C340.18,316.01 343.19,322.00 343.76,322.00 C343.91,322.00 343.73,320.76 343.35,319.25 ZM 702.06 335.58 C704.30,335.20 706.89,333.68 709.01,331.49 C710.35,330.11 711.37,328.91 711.72,328.34 C721.54,324.67 733.70,320.89 742.77,318.96 C755.29,316.30 784.06,315.19 795.88,316.92 C832.92,322.34 863.22,341.35 892.05,377.25 C904.18,392.36 917.39,411.72 938.00,444.60 C941.03,449.42 944.85,455.04 946.50,457.09 C948.15,459.13 951.73,463.66 954.46,467.15 C961.01,475.53 974.96,489.88 980.14,493.56 C982.41,495.18 986.06,498.10 988.26,500.06 C993.06,504.34 992.80,506.75 987.20,510.13 C980.38,514.23 962.99,531.68 952.86,544.59 C949.16,549.30 932.27,574.33 927.50,582.18 C922.99,589.60 905.10,615.84 898.28,625.05 C885.48,642.32 870.82,657.70 857.81,667.50 C846.63,675.93 828.85,685.04 818.00,687.90 C798.53,693.04 795.24,693.45 774.00,693.41 C755.40,693.38 752.46,693.13 742.31,690.73 C736.16,689.28 726.71,686.64 721.31,684.86 C717.95,683.76 712.69,681.54 706.74,678.80 C706.79,678.56 706.49,678.06 705.92,677.49 C704.48,676.05 694.00,671.73 694.00,672.57 C694.00,672.60 694.04,672.66 694.12,672.73 C690.65,670.99 687.21,669.21 684.01,667.50 C684.66,667.82 685.08,668.00 685.22,668.00 C685.72,668.00 685.87,667.16 685.54,666.12 C685.13,664.84 686.21,662.71 688.96,659.37 C714.08,628.89 725.46,608.57 735.08,577.00 C736.17,573.42 737.93,567.75 738.98,564.38 C741.50,556.35 744.06,535.98 745.50,512.50 C746.09,503.02 744.32,474.57 742.46,463.50 C741.63,458.55 739.65,450.45 738.06,445.50 C736.46,440.55 734.84,434.92 734.45,433.00 C732.75,424.61 720.24,396.17 712.69,383.50 C708.02,375.67 699.95,363.85 696.57,359.91 C687.96,349.84 684.77,345.00 685.32,342.89 C685.53,342.06 685.58,341.62 685.18,341.62 C685.43,341.49 685.67,341.36 685.91,341.23 C690.64,338.76 695.06,336.29 695.74,335.75 C697.17,334.62 700.07,333.13 703.87,331.49 C699.81,333.50 695.66,335.74 695.36,336.22 C695.01,336.80 695.53,337.00 696.62,336.69 C697.66,336.41 700.10,335.91 702.06,335.58 ZM 556.00 734.69 C574.10,730.88 586.43,727.21 601.00,721.31 C614.52,715.82 638.55,703.14 644.86,698.16 C646.71,696.70 649.86,694.42 651.86,693.11 C653.86,691.79 659.70,687.17 664.83,682.84 C669.95,678.52 674.57,675.23 675.08,675.55 C676.13,676.20 676.28,675.75 675.46,674.09 C679.38,680.78 683.64,688.60 686.63,694.71 C684.74,690.92 683.51,689.27 683.28,690.22 C682.82,692.14 690.19,706.92 690.76,705.21 C690.94,704.67 689.68,701.23 687.89,697.33 C688.33,698.28 688.72,699.15 689.06,699.96 C693.62,710.59 698.37,726.54 700.69,739.00 C703.18,752.40 703.13,784.05 700.59,796.00 C698.06,807.91 692.50,824.44 688.83,830.98 C677.16,851.77 654.77,874.87 629.50,892.15 C625.10,895.17 618.12,899.99 614.00,902.88 C600.64,912.23 581.02,925.00 580.03,925.00 C579.50,925.00 577.59,926.26 575.78,927.80 C573.98,929.34 567.16,934.40 560.63,939.05 C543.24,951.43 534.35,959.52 525.65,970.87 C521.38,976.44 517.05,981.44 516.01,981.99 C514.98,982.55 513.75,983.00 513.28,983.00 C511.75,983.00 506.38,977.64 501.16,970.88 C491.20,958.00 471.64,941.12 451.00,927.57 C438.34,919.26 407.47,898.31 394.41,889.17 C360.34,865.31 337.61,837.21 329.14,808.50 C326.59,799.85 324.00,779.44 324.00,767.99 C324.00,736.81 333.51,704.36 351.67,673.35 C350.72,675.26 350.97,675.74 351.95,676.00 C353.45,676.40 361.68,682.89 370.36,690.50 C373.09,692.90 382.95,699.88 388.00,702.99 C398.75,709.61 418.80,719.93 421.03,719.97 C421.87,719.99 423.44,720.62 424.53,721.38 C426.68,722.89 448.61,729.85 459.00,732.33 C462.58,733.18 470.45,734.57 476.50,735.41 C482.55,736.25 488.62,737.15 490.00,737.40 C491.38,737.66 504.20,737.69 518.50,737.49 C541.24,737.16 545.94,736.80 556.00,734.69 ZM 341.85 341.78 C340.72,341.29 339.85,341.00 339.38,341.00 C339.13,341.00 339.43,341.93 340.04,343.07 C341.36,345.55 340.53,346.99 332.16,356.75 C320.05,370.88 304.01,397.94 298.53,413.50 C297.56,416.25 295.75,420.98 294.51,424.00 C289.64,435.92 287.14,446.19 282.47,473.50 C280.32,486.08 280.13,489.58 280.56,508.00 C280.83,519.28 281.50,532.33 282.05,537.00 C283.59,550.09 289.64,575.83 294.09,588.28 C303.19,613.72 319.23,640.29 337.24,659.74 C341.39,664.22 341.93,665.26 341.01,666.99 C340.41,668.09 340.25,669.00 340.65,669.00 C340.81,669.00 341.67,668.57 342.98,667.85 C334.69,672.75 333.74,673.14 329.31,674.88 C326.45,676.01 320.22,678.80 315.45,681.08 C306.43,685.41 302.26,686.78 288.00,690.10 C275.01,693.12 261.95,694.23 246.00,693.66 C219.32,692.71 200.77,687.13 178.00,673.18 C150.76,656.51 130.75,632.24 86.31,562.00 C75.44,544.81 60.39,527.54 45.50,515.17 C36.77,507.91 34.34,504.88 35.61,502.82 C35.95,502.28 38.76,499.96 41.87,497.67 C57.92,485.83 77.76,462.56 94.04,436.50 C96.44,432.65 103.15,422.35 108.95,413.61 C114.75,404.86 120.18,396.51 121.00,395.05 C122.75,391.94 125.68,388.06 136.09,375.01 C156.57,349.37 181.58,330.92 207.12,322.63 C223.87,317.20 229.18,316.50 253.50,316.53 C262.04,316.54 269.04,316.73 274.78,317.12 C274.74,317.12 274.70,317.12 274.66,317.12 C272.73,317.20 274.81,317.94 280.00,319.03 C287.81,320.67 293.81,321.36 293.91,320.68 C296.01,321.51 301.63,323.38 307.00,325.03 L 307.06 325.04 C306.89,325.02 306.73,325.01 306.59,325.02 C305.68,325.03 321.33,332.87 330.00,336.75 C333.13,338.15 334.46,338.20 333.23,337.01 C335.14,338.34 338.78,340.35 341.85,341.78 ZM 278.59 317.42 C283.82,317.91 287.83,318.62 290.91,319.56 C287.66,318.81 282.39,317.89 278.59,317.42 ZM 666.16 352.13 C666.22,351.11 668.17,347.98 671.95,341.99 C672.45,341.21 672.91,340.47 673.34,339.76 C671.98,342.00 670.53,344.32 669.00,346.76 C667.51,349.13 666.38,351.29 666.16,352.13 ZM 672.83 348.77 C672.72,348.84 672.61,348.92 672.50,348.99 C669.03,351.31 666.99,352.63 666.37,352.50 C667.09,352.36 669.41,351.06 671.97,349.33 C672.23,349.16 672.52,348.97 672.83,348.77 ZM 328.31 333.79 C325.95,332.49 323.05,331.08 320.13,329.77 C323.18,331.08 325.93,332.43 328.31,333.79 ZM 672.26 660.77 C673.15,661.29 674.09,661.84 675.06,662.43 C676.52,663.31 677.95,664.15 679.25,664.90 C676.64,663.44 674.32,662.07 672.42,660.87 C672.36,660.84 672.31,660.81 672.26,660.77 ZM 671.84 668.11 C671.41,667.46 670.95,666.77 670.46,666.03 C669.83,665.08 669.23,664.16 668.67,663.30 C669.60,664.61 670.67,666.25 671.84,668.11 ZM 665.35 657.32 C665.36,657.31 665.36,657.31 665.36,657.30 C665.39,657.28 665.44,657.28 665.53,657.30 C665.45,657.29 665.39,657.30 665.35,657.32 Z" fill="rgb(137,203,22)"/>
<path d="M 489.00 667.36 C471.82,664.76 453.31,658.84 438.50,651.20 C421.41,642.40 410.57,634.58 396.67,621.06 C372.64,597.67 357.74,569.66 351.30,535.74 C349.97,528.72 349.55,521.32 349.55,505.00 C349.55,486.37 349.85,482.12 351.82,473.12 C357.11,448.95 367.43,425.66 380.93,407.46 C395.18,388.26 418.25,368.41 437.69,358.64 C449.95,352.47 466.50,346.78 482.11,343.34 C494.13,340.70 532.64,340.68 545.00,343.31 C573.07,349.27 600.24,362.93 621.56,381.78 C657.86,413.89 677.08,456.81 677.18,506.00 C677.27,548.12 662.02,587.03 633.88,616.46 C624.52,626.26 608.53,639.25 598.27,645.39 C566.16,664.62 525.23,672.85 489.00,667.36 ZM 537.50 623.49 C553.43,620.22 569.35,613.50 581.66,604.84 C613.63,582.35 631.96,549.79 633.68,512.43 C635.06,482.48 626.52,454.84 608.46,430.87 C593.00,410.33 572.01,396.10 545.69,388.31 C534.25,384.93 532.45,384.68 516.50,384.28 C499.74,383.86 499.31,383.90 485.97,387.29 C465.52,392.50 455.22,397.35 439.23,409.32 C428.75,417.16 423.41,422.75 414.70,435.00 C406.03,447.19 401.59,456.02 398.12,468.00 C393.55,483.77 392.63,490.10 392.60,506.00 C392.54,527.41 395.77,541.65 404.78,559.75 C417.38,585.08 440.69,606.48 466.50,616.41 C478.76,621.13 485.89,623.09 496.50,624.62 C507.61,626.23 526.71,625.71 537.50,623.49 Z" fill="rgb(163,220,86)"/>
<path d="M 0.00 508.00 L 0.00 0.00 L 516.00 0.00 L 1032.00 0.00 L 1032.00 508.00 L 1032.00 1016.00 L 516.00 1016.00 L 0.00 1016.00 L 0.00 508.00 ZM 516.01 981.99 C517.05,981.44 521.38,976.44 525.65,970.87 C534.35,959.52 543.24,951.43 560.63,939.05 C567.16,934.40 573.98,929.34 575.78,927.80 C577.59,926.26 579.50,925.00 580.03,925.00 C581.02,925.00 600.64,912.23 614.00,902.88 C618.12,899.99 625.10,895.17 629.50,892.15 C654.77,874.87 677.16,851.77 688.83,830.98 C692.50,824.44 698.06,807.91 700.59,796.00 C703.13,784.05 703.18,752.40 700.69,739.00 C698.37,726.54 693.62,710.59 689.06,699.96 C684.99,690.44 673.61,670.08 668.25,662.70 C666.33,660.06 665.02,657.65 665.33,657.33 C665.65,657.02 668.84,658.61 672.42,660.87 C683.98,668.17 711.23,681.54 721.31,684.86 C726.71,686.64 736.16,689.28 742.31,690.73 C752.46,693.13 755.40,693.38 774.00,693.41 C795.24,693.45 798.53,693.04 818.00,687.90 C828.85,685.04 846.63,675.93 857.81,667.50 C870.82,657.70 885.48,642.32 898.28,625.05 C905.10,615.84 922.99,589.60 927.50,582.18 C932.27,574.33 949.16,549.30 952.86,544.59 C962.99,531.68 980.38,514.23 987.20,510.13 C992.80,506.75 993.06,504.34 988.26,500.06 C986.06,498.10 982.41,495.18 980.14,493.56 C974.96,489.88 961.01,475.53 954.46,467.15 C951.73,463.66 948.15,459.13 946.50,457.09 C944.85,455.04 941.03,449.42 938.00,444.60 C917.39,411.72 904.18,392.36 892.05,377.25 C863.22,341.35 832.92,322.34 795.88,316.92 C784.06,315.19 755.29,316.30 742.77,318.96 C726.75,322.37 701.04,331.55 695.74,335.75 C695.06,336.29 690.64,338.76 685.91,341.23 C681.19,343.70 674.92,347.35 671.97,349.33 C669.02,351.32 666.40,352.74 666.15,352.48 C665.90,352.23 667.18,349.65 669.00,346.76 C681.26,327.28 687.75,314.80 691.89,302.74 C701.45,274.87 702.53,268.49 702.38,241.00 C702.27,220.36 702.15,219.06 699.25,208.50 C694.41,190.87 689.21,179.23 680.94,167.50 C678.22,163.65 674.93,158.93 673.63,157.00 C668.69,149.72 645.35,128.55 633.86,120.92 C631.85,119.59 625.12,114.90 618.90,110.50 C612.67,106.10 606.11,101.60 604.33,100.50 C602.54,99.40 598.02,96.42 594.29,93.88 C590.55,91.33 583.67,86.75 579.00,83.70 C553.10,66.77 536.99,53.13 524.99,38.00 C518.41,29.69 516.41,28.00 513.13,28.00 C510.70,28.00 509.31,29.10 505.27,34.25 C491.19,52.15 471.58,68.29 433.00,93.71 C393.38,119.81 377.32,131.67 364.93,143.98 C344.72,164.07 332.43,186.43 326.32,214.23 C324.85,220.94 324.53,226.64 324.61,244.50 C324.71,264.43 324.96,267.44 327.22,276.50 C332.37,297.04 338.53,314.58 342.77,320.79 C343.80,322.28 345.95,326.18 347.57,329.45 C349.18,332.72 353.25,339.58 356.62,344.70 C359.98,349.81 362.35,354.00 361.87,354.00 C361.40,354.00 358.19,351.93 354.75,349.40 C351.31,346.86 345.70,343.53 342.29,341.98 C338.87,340.43 334.60,338.05 332.79,336.69 C327.36,332.61 318.11,328.43 307.00,325.03 C301.23,323.26 295.15,321.22 293.50,320.51 C287.09,317.73 275.34,316.56 253.50,316.53 C229.18,316.50 223.87,317.20 207.12,322.63 C181.58,330.92 156.57,349.37 136.09,375.01 C125.68,388.06 122.75,391.94 121.00,395.05 C120.18,396.51 114.75,404.86 108.95,413.61 C103.15,422.35 96.44,432.65 94.04,436.50 C77.76,462.56 57.92,485.83 41.87,497.67 C38.76,499.96 35.95,502.28 35.61,502.82 C34.34,504.88 36.77,507.91 45.50,515.17 C60.39,527.54 75.44,544.81 86.31,562.00 C130.75,632.24 150.76,656.51 178.00,673.18 C200.77,687.13 219.32,692.71 246.00,693.66 C261.95,694.23 275.01,693.12 288.00,690.10 C302.26,686.78 306.43,685.41 315.45,681.08 C320.22,678.80 326.45,676.01 329.31,674.88 C334.79,672.73 334.94,672.65 350.27,663.52 C355.64,660.32 360.23,657.89 360.46,658.13 C360.69,658.36 358.75,661.91 356.14,666.02 C335.07,699.23 324.00,734.35 324.00,767.99 C324.00,779.44 326.59,799.85 329.14,808.50 C337.61,837.21 360.34,865.31 394.41,889.17 C407.47,898.31 438.34,919.26 451.00,927.57 C471.64,941.12 491.20,958.00 501.16,970.88 C506.38,977.64 511.75,983.00 513.28,983.00 C513.75,983.00 514.98,982.55 516.01,981.99 Z" fill="rgb(254,254,254)"/>
</g>
</svg>